# xmcd
#
# Track frame offsets: 
#        150
#        15581
#        38370
#        59323
#        73260
#        91263
#        110653
#        125835
#        144152
#        157544
#
# Disc length: 2318 seconds
#
# Revision: 0
# Processed by: cddbd v1.5.2PL0 Copyright (c) Steve Scherf et al.
# Submitted via: ExactAudioCopy v1.0b4
#
DISCID=79090c0a
DTITLE=Delgado Brothers, The  - The Delgado Brothers (LP)
DYEAR=1987
DGENRE=Blues
TTITLE0=That's Where I Come In
TTITLE1=Jo Anne
TTITLE2=Our Days Are Numbered
TTITLE3=Her Number
TTITLE4=Fair Warning
TTITLE5=Where Do I Stand
TTITLE6=Thanks A Lot
TTITLE7=Really Down
TTITLE8=I Ain' t There
TTITLE9=Last Chance Saloon
EXTD=
EXTT0=
EXTT1=
EXTT2=
EXTT3=
EXTT4=
EXTT5=
EXTT6=
EXTT7=
EXTT8=
EXTT9=
PLAYORDER=
